# xmcd
#
# Track frame offsets:
# 150
# 13497
# 26355
# 41856
# 55563
# 70212
# 82971
# 107955
# 128880
# 154833
# 171348
# 188514
# 203067
# 221241
# 239298
#
# Disc length: 3620 seconds
#
#
# Revision: 0
# Processed by: cddbd v1.5.2PL0 Copyright (c) Steve Scherf et al.
# Submitted via: FreeRIP 2.951 
#
DISCID=d10e220f
DTITLE=Compilation Blues - Blues CD4 - Women in Blues
DYEAR=2005
DGENRE=Blues
TTITLE0=Bessie Smith - Nobody Knows You When You're Down And Out
TTITLE1=Ma Rainey - Don't Fish In My See
TTITLE2=Mamie Smith - Crazy Blues
TTITLE3=Memphis Minnie - Me And My Chauffeur
TTITLE4=Dinah Washington - Long John Blues
TTITLE5=Willie Mae "Big Mama" Thomton - Hound Dog
TTITLE6=Katie Webster - After U Get Ride Of Me
TTITLE7=Saffire, The Uppity Blues Women - If I Should Die Tonight
TTITLE8=Koto Taylor - Fish In Dirty Water
TTITLE9=Sue Foley - Hardworking Woman
TTITLE10=Beverly Jo Scott - Tennessee Tears
TTITLE11=Candye Kane - White Trash Girl
TTITLE12=Marcia Ball - I'm Coming Down With The Blues
TTITLE13=Deborah Coleman - The Dream
TTITLE14=Shemekia Copeland - Married to the blues
EXTD=
EXTT0=
EXTT1=
EXTT2=
EXTT3=
EXTT4=
EXTT5=
EXTT6=
EXTT7=
EXTT8=
EXTT9=
EXTT10=
EXTT11=
EXTT12=
EXTT13=
EXTT14=
PLAYORDER=
